<mxfile host="Electron" modified="2024-01-04T14:45:31.914Z" agent="Mozilla/5.0 (Macintosh; Intel Mac OS X 10_15_7) AppleWebKit/537.36 (KHTML, like Gecko) draw.io/22.1.16 Chrome/120.0.6099.109 Electron/28.1.0 Safari/537.36" etag="APGnFLNtwhXYvWGWYY5l" version="22.1.16" type="device">
  <diagram id="C5RBs43oDa-KdzZeNtuy" name="Page-1">
    <mxGraphModel dx="1122" dy="793" grid="1" gridSize="10" guides="1" tooltips="1" connect="1" arrows="1" fold="1" page="1" pageScale="1" pageWidth="827" pageHeight="1169" math="0" shadow="0">
      <root>
        <mxCell id="WIyWlLk6GJQsqaUBKTNV-0" />
        <mxCell id="WIyWlLk6GJQsqaUBKTNV-1" parent="WIyWlLk6GJQsqaUBKTNV-0" />
        <mxCell id="3PD45dqQiOr3j87u4JWM-59" value="" style="group" parent="WIyWlLk6GJQsqaUBKTNV-1" vertex="1" connectable="0">
          <mxGeometry x="30" y="80" width="436" height="125" as="geometry" />
        </mxCell>
        <mxCell id="WIyWlLk6GJQsqaUBKTNV-3" value="ihp" style="rounded=1;whiteSpace=wrap;html=1;fontSize=12;glass=0;strokeWidth=1;shadow=0;" parent="3PD45dqQiOr3j87u4JWM-59" vertex="1">
          <mxGeometry y="40" width="120" height="40" as="geometry" />
        </mxCell>
        <mxCell id="3PD45dqQiOr3j87u4JWM-29" value="" style="strokeWidth=2;html=1;shape=mxgraph.flowchart.annotation_2;align=left;labelPosition=right;pointerEvents=1;fontSize=12;" parent="3PD45dqQiOr3j87u4JWM-59" vertex="1">
          <mxGeometry x="120" width="50" height="120" as="geometry" />
        </mxCell>
        <mxCell id="3PD45dqQiOr3j87u4JWM-30" value="Entry / Root Command of the CLI&lt;br&gt;&amp;gt; Entry Screen/Info/Header&lt;br&gt;&amp;gt;&amp;nbsp;&lt;span&gt;Display current User (info)&lt;br&gt;&lt;/span&gt;&lt;span&gt;&amp;gt; Display current Tokens&lt;br&gt;&lt;/span&gt;&lt;span&gt;&amp;gt; Display short overview of instances&lt;br&gt;&lt;/span&gt;&lt;span&gt;&lt;br&gt;Flags:&lt;/span&gt;&lt;span&gt;&lt;br&gt;&lt;/span&gt;&lt;span&gt;&#x9;&lt;/span&gt;&lt;span style=&quot;white-space: pre&quot;&gt;&#x9;&lt;/span&gt;-h --help : Runs the Help command" style="text;html=1;strokeColor=none;fillColor=none;align=left;verticalAlign=middle;whiteSpace=wrap;rounded=0;fontSize=12;" parent="3PD45dqQiOr3j87u4JWM-59" vertex="1">
          <mxGeometry x="176" width="260" height="125" as="geometry" />
        </mxCell>
        <mxCell id="3PD45dqQiOr3j87u4JWM-72" value="" style="group" parent="WIyWlLk6GJQsqaUBKTNV-1" vertex="1" connectable="0">
          <mxGeometry x="160" y="240" width="436" height="125" as="geometry" />
        </mxCell>
        <mxCell id="3PD45dqQiOr3j87u4JWM-73" value="login" style="rounded=1;whiteSpace=wrap;html=1;fontSize=12;glass=0;strokeWidth=1;shadow=0;" parent="3PD45dqQiOr3j87u4JWM-72" vertex="1">
          <mxGeometry y="40" width="120" height="40" as="geometry" />
        </mxCell>
        <mxCell id="3PD45dqQiOr3j87u4JWM-74" value="" style="strokeWidth=2;html=1;shape=mxgraph.flowchart.annotation_2;align=left;labelPosition=right;pointerEvents=1;fontSize=12;" parent="3PD45dqQiOr3j87u4JWM-72" vertex="1">
          <mxGeometry x="120" width="50" height="120" as="geometry" />
        </mxCell>
        <mxCell id="3PD45dqQiOr3j87u4JWM-75" value="Command to login&lt;br&gt;&amp;gt; Starts Keycloak Login Flow&lt;br&gt;&lt;div&gt;&lt;br&gt;&lt;/div&gt;&lt;span&gt;&#x9;&lt;/span&gt;&lt;span&gt;&#x9;&lt;/span&gt;-h --help: Runs the Help command" style="text;html=1;strokeColor=none;fillColor=none;align=left;verticalAlign=middle;whiteSpace=wrap;rounded=0;fontSize=12;" parent="3PD45dqQiOr3j87u4JWM-72" vertex="1">
          <mxGeometry x="176" y="-1" width="260" height="125" as="geometry" />
        </mxCell>
        <mxCell id="3PD45dqQiOr3j87u4JWM-77" value="" style="group" parent="WIyWlLk6GJQsqaUBKTNV-1" vertex="1" connectable="0">
          <mxGeometry x="160" y="390" width="436" height="125" as="geometry" />
        </mxCell>
        <mxCell id="3PD45dqQiOr3j87u4JWM-78" value="logout" style="rounded=1;whiteSpace=wrap;html=1;fontSize=12;glass=0;strokeWidth=1;shadow=0;" parent="3PD45dqQiOr3j87u4JWM-77" vertex="1">
          <mxGeometry y="40" width="120" height="40" as="geometry" />
        </mxCell>
        <mxCell id="3PD45dqQiOr3j87u4JWM-79" value="" style="strokeWidth=2;html=1;shape=mxgraph.flowchart.annotation_2;align=left;labelPosition=right;pointerEvents=1;fontSize=12;" parent="3PD45dqQiOr3j87u4JWM-77" vertex="1">
          <mxGeometry x="120" width="50" height="120" as="geometry" />
        </mxCell>
        <mxCell id="3PD45dqQiOr3j87u4JWM-80" value="Command to logout&lt;br&gt;&amp;gt; Starts Keycloak logout flow&lt;br&gt;&lt;br&gt;&lt;div&gt;Flags:&lt;/div&gt;-h --help: Runs the Help command" style="text;html=1;strokeColor=none;fillColor=none;align=left;verticalAlign=middle;whiteSpace=wrap;rounded=0;fontSize=12;" parent="3PD45dqQiOr3j87u4JWM-77" vertex="1">
          <mxGeometry x="176" y="-1" width="260" height="125" as="geometry" />
        </mxCell>
        <mxCell id="3PD45dqQiOr3j87u4JWM-81" value="" style="group" parent="WIyWlLk6GJQsqaUBKTNV-1" vertex="1" connectable="0">
          <mxGeometry x="160" y="540" width="436" height="125" as="geometry" />
        </mxCell>
        <mxCell id="3PD45dqQiOr3j87u4JWM-82" value="register" style="rounded=1;whiteSpace=wrap;html=1;fontSize=12;glass=0;strokeWidth=1;shadow=0;" parent="3PD45dqQiOr3j87u4JWM-81" vertex="1">
          <mxGeometry y="40" width="120" height="40" as="geometry" />
        </mxCell>
        <mxCell id="3PD45dqQiOr3j87u4JWM-83" value="" style="strokeWidth=2;html=1;shape=mxgraph.flowchart.annotation_2;align=left;labelPosition=right;pointerEvents=1;fontSize=12;" parent="3PD45dqQiOr3j87u4JWM-81" vertex="1">
          <mxGeometry x="120" width="50" height="120" as="geometry" />
        </mxCell>
        <mxCell id="3PD45dqQiOr3j87u4JWM-84" value="Command to register&lt;br&gt;&amp;gt; Starts Keycloak register flow&lt;br&gt;&lt;div&gt;&lt;br&gt;&lt;/div&gt;-h --help: Runs the Help command" style="text;html=1;strokeColor=none;fillColor=none;align=left;verticalAlign=middle;whiteSpace=wrap;rounded=0;fontSize=12;" parent="3PD45dqQiOr3j87u4JWM-81" vertex="1">
          <mxGeometry x="176" y="-1" width="260" height="125" as="geometry" />
        </mxCell>
        <mxCell id="3PD45dqQiOr3j87u4JWM-85" value="" style="group" parent="WIyWlLk6GJQsqaUBKTNV-1" vertex="1" connectable="0">
          <mxGeometry x="160" y="700" width="436" height="125" as="geometry" />
        </mxCell>
        <mxCell id="3PD45dqQiOr3j87u4JWM-86" value="balance" style="rounded=1;whiteSpace=wrap;html=1;fontSize=12;glass=0;strokeWidth=1;shadow=0;" parent="3PD45dqQiOr3j87u4JWM-85" vertex="1">
          <mxGeometry y="40" width="120" height="40" as="geometry" />
        </mxCell>
        <mxCell id="3PD45dqQiOr3j87u4JWM-87" value="" style="strokeWidth=2;html=1;shape=mxgraph.flowchart.annotation_2;align=left;labelPosition=right;pointerEvents=1;fontSize=12;" parent="3PD45dqQiOr3j87u4JWM-85" vertex="1">
          <mxGeometry x="120" width="50" height="120" as="geometry" />
        </mxCell>
        <mxCell id="3PD45dqQiOr3j87u4JWM-88" value="Displays the current tokens for the user&lt;br&gt;&lt;br&gt;&lt;div&gt;Flags:&lt;/div&gt;-h --help: Runs the Help command" style="text;html=1;strokeColor=none;fillColor=none;align=left;verticalAlign=middle;whiteSpace=wrap;rounded=0;fontSize=12;" parent="3PD45dqQiOr3j87u4JWM-85" vertex="1">
          <mxGeometry x="176" y="-1" width="260" height="125" as="geometry" />
        </mxCell>
        <mxCell id="3PD45dqQiOr3j87u4JWM-98" value="" style="group" parent="WIyWlLk6GJQsqaUBKTNV-1" vertex="1" connectable="0">
          <mxGeometry x="150" y="1040" width="436" height="105" as="geometry" />
        </mxCell>
        <mxCell id="3PD45dqQiOr3j87u4JWM-99" value="instance [id]" style="rounded=1;whiteSpace=wrap;html=1;fontSize=12;glass=0;strokeWidth=1;shadow=0;" parent="3PD45dqQiOr3j87u4JWM-98" vertex="1">
          <mxGeometry y="33.6" width="120" height="33.6" as="geometry" />
        </mxCell>
        <mxCell id="3PD45dqQiOr3j87u4JWM-100" value="" style="strokeWidth=2;html=1;shape=mxgraph.flowchart.annotation_2;align=left;labelPosition=right;pointerEvents=1;fontSize=12;" parent="3PD45dqQiOr3j87u4JWM-98" vertex="1">
          <mxGeometry x="120" width="50" height="100.8" as="geometry" />
        </mxCell>
        <mxCell id="3PD45dqQiOr3j87u4JWM-101" value="Displays info of instance with given [id]&lt;br&gt;&lt;br&gt;&lt;div&gt;Flags:&lt;/div&gt;-h --help: Runs the Help command" style="text;html=1;strokeColor=none;fillColor=none;align=left;verticalAlign=middle;whiteSpace=wrap;rounded=0;fontSize=12;" parent="3PD45dqQiOr3j87u4JWM-98" vertex="1">
          <mxGeometry x="176" y="-0.8400000000000001" width="260" height="105" as="geometry" />
        </mxCell>
        <mxCell id="3PD45dqQiOr3j87u4JWM-102" value="" style="group" parent="WIyWlLk6GJQsqaUBKTNV-1" vertex="1" connectable="0">
          <mxGeometry x="270" y="1200" width="436" height="125" as="geometry" />
        </mxCell>
        <mxCell id="3PD45dqQiOr3j87u4JWM-103" value="create" style="rounded=1;whiteSpace=wrap;html=1;fontSize=12;glass=0;strokeWidth=1;shadow=0;" parent="3PD45dqQiOr3j87u4JWM-102" vertex="1">
          <mxGeometry y="40" width="120" height="40" as="geometry" />
        </mxCell>
        <mxCell id="3PD45dqQiOr3j87u4JWM-104" value="" style="strokeWidth=2;html=1;shape=mxgraph.flowchart.annotation_2;align=left;labelPosition=right;pointerEvents=1;fontSize=12;" parent="3PD45dqQiOr3j87u4JWM-102" vertex="1">
          <mxGeometry x="120" width="50" height="120" as="geometry" />
        </mxCell>
        <mxCell id="3PD45dqQiOr3j87u4JWM-105" value="Runs the create instance prompt&lt;br&gt;&lt;br&gt;&lt;div&gt;Flags:&lt;/div&gt;-h --help: Runs the Help command" style="text;html=1;strokeColor=none;fillColor=none;align=left;verticalAlign=middle;whiteSpace=wrap;rounded=0;fontSize=12;" parent="3PD45dqQiOr3j87u4JWM-102" vertex="1">
          <mxGeometry x="176" y="-1" width="260" height="125" as="geometry" />
        </mxCell>
        <mxCell id="3PD45dqQiOr3j87u4JWM-110" value="" style="group" parent="WIyWlLk6GJQsqaUBKTNV-1" vertex="1" connectable="0">
          <mxGeometry x="270" y="1360" width="436" height="125" as="geometry" />
        </mxCell>
        <mxCell id="3PD45dqQiOr3j87u4JWM-111" value="delete [id]" style="rounded=1;whiteSpace=wrap;html=1;fontSize=12;glass=0;strokeWidth=1;shadow=0;" parent="3PD45dqQiOr3j87u4JWM-110" vertex="1">
          <mxGeometry y="40" width="120" height="40" as="geometry" />
        </mxCell>
        <mxCell id="3PD45dqQiOr3j87u4JWM-112" value="" style="strokeWidth=2;html=1;shape=mxgraph.flowchart.annotation_2;align=left;labelPosition=right;pointerEvents=1;fontSize=12;" parent="3PD45dqQiOr3j87u4JWM-110" vertex="1">
          <mxGeometry x="120" width="50" height="120" as="geometry" />
        </mxCell>
        <mxCell id="3PD45dqQiOr3j87u4JWM-113" value="Command to delete an instance with the given [id]&lt;br&gt;&lt;br&gt;&lt;div&gt;Flags:&lt;/div&gt;-h --help: Runs the Help command" style="text;html=1;strokeColor=none;fillColor=none;align=left;verticalAlign=middle;whiteSpace=wrap;rounded=0;fontSize=12;" parent="3PD45dqQiOr3j87u4JWM-110" vertex="1">
          <mxGeometry x="176" y="-1" width="260" height="125" as="geometry" />
        </mxCell>
        <mxCell id="3PD45dqQiOr3j87u4JWM-114" value="" style="group" parent="WIyWlLk6GJQsqaUBKTNV-1" vertex="1" connectable="0">
          <mxGeometry x="270" y="1520" width="436" height="125" as="geometry" />
        </mxCell>
        <mxCell id="3PD45dqQiOr3j87u4JWM-115" value="start [id]" style="rounded=1;whiteSpace=wrap;html=1;fontSize=12;glass=0;strokeWidth=1;shadow=0;" parent="3PD45dqQiOr3j87u4JWM-114" vertex="1">
          <mxGeometry y="40" width="120" height="40" as="geometry" />
        </mxCell>
        <mxCell id="3PD45dqQiOr3j87u4JWM-116" value="" style="strokeWidth=2;html=1;shape=mxgraph.flowchart.annotation_2;align=left;labelPosition=right;pointerEvents=1;fontSize=12;" parent="3PD45dqQiOr3j87u4JWM-114" vertex="1">
          <mxGeometry x="120" width="50" height="120" as="geometry" />
        </mxCell>
        <mxCell id="3PD45dqQiOr3j87u4JWM-117" value="Command to start an (existing) instance with the given [id]&lt;br&gt;&lt;br&gt;&lt;div&gt;Flags:&lt;/div&gt;-h --help: Runs the Help command" style="text;html=1;strokeColor=none;fillColor=none;align=left;verticalAlign=middle;whiteSpace=wrap;rounded=0;fontSize=12;" parent="3PD45dqQiOr3j87u4JWM-114" vertex="1">
          <mxGeometry x="176" y="-1" width="260" height="125" as="geometry" />
        </mxCell>
        <mxCell id="3PD45dqQiOr3j87u4JWM-118" value="" style="group" parent="WIyWlLk6GJQsqaUBKTNV-1" vertex="1" connectable="0">
          <mxGeometry x="270" y="1670" width="436" height="125" as="geometry" />
        </mxCell>
        <mxCell id="3PD45dqQiOr3j87u4JWM-119" value="stop [id]" style="rounded=1;whiteSpace=wrap;html=1;fontSize=12;glass=0;strokeWidth=1;shadow=0;" parent="3PD45dqQiOr3j87u4JWM-118" vertex="1">
          <mxGeometry y="40" width="120" height="40" as="geometry" />
        </mxCell>
        <mxCell id="3PD45dqQiOr3j87u4JWM-120" value="" style="strokeWidth=2;html=1;shape=mxgraph.flowchart.annotation_2;align=left;labelPosition=right;pointerEvents=1;fontSize=12;" parent="3PD45dqQiOr3j87u4JWM-118" vertex="1">
          <mxGeometry x="120" width="50" height="120" as="geometry" />
        </mxCell>
        <mxCell id="3PD45dqQiOr3j87u4JWM-121" value="Command to stop the (running) instance with the given [id]&lt;br&gt;&lt;br&gt;&lt;div&gt;Flags:&lt;/div&gt;-h --help: Runs the Help command" style="text;html=1;strokeColor=none;fillColor=none;align=left;verticalAlign=middle;whiteSpace=wrap;rounded=0;fontSize=12;" parent="3PD45dqQiOr3j87u4JWM-118" vertex="1">
          <mxGeometry x="176" y="-1" width="260" height="125" as="geometry" />
        </mxCell>
        <mxCell id="YnjlUxaA0p5YhZq7Bkp_-0" style="edgeStyle=orthogonalEdgeStyle;rounded=0;orthogonalLoop=1;jettySize=auto;html=1;exitX=0.5;exitY=1;exitDx=0;exitDy=0;entryX=0;entryY=0.5;entryDx=0;entryDy=0;" parent="WIyWlLk6GJQsqaUBKTNV-1" source="WIyWlLk6GJQsqaUBKTNV-3" target="3PD45dqQiOr3j87u4JWM-73" edge="1">
          <mxGeometry relative="1" as="geometry" />
        </mxCell>
        <mxCell id="YnjlUxaA0p5YhZq7Bkp_-1" style="edgeStyle=orthogonalEdgeStyle;rounded=0;orthogonalLoop=1;jettySize=auto;html=1;exitX=0.5;exitY=1;exitDx=0;exitDy=0;entryX=0;entryY=0.5;entryDx=0;entryDy=0;" parent="WIyWlLk6GJQsqaUBKTNV-1" source="WIyWlLk6GJQsqaUBKTNV-3" target="3PD45dqQiOr3j87u4JWM-78" edge="1">
          <mxGeometry relative="1" as="geometry" />
        </mxCell>
        <mxCell id="YnjlUxaA0p5YhZq7Bkp_-2" style="edgeStyle=orthogonalEdgeStyle;rounded=0;orthogonalLoop=1;jettySize=auto;html=1;exitX=0.5;exitY=1;exitDx=0;exitDy=0;entryX=0;entryY=0.5;entryDx=0;entryDy=0;" parent="WIyWlLk6GJQsqaUBKTNV-1" source="WIyWlLk6GJQsqaUBKTNV-3" target="3PD45dqQiOr3j87u4JWM-82" edge="1">
          <mxGeometry relative="1" as="geometry" />
        </mxCell>
        <mxCell id="YnjlUxaA0p5YhZq7Bkp_-3" style="edgeStyle=orthogonalEdgeStyle;rounded=0;orthogonalLoop=1;jettySize=auto;html=1;exitX=0.5;exitY=1;exitDx=0;exitDy=0;entryX=0;entryY=0.5;entryDx=0;entryDy=0;" parent="WIyWlLk6GJQsqaUBKTNV-1" source="WIyWlLk6GJQsqaUBKTNV-3" target="3PD45dqQiOr3j87u4JWM-86" edge="1">
          <mxGeometry relative="1" as="geometry" />
        </mxCell>
        <mxCell id="YnjlUxaA0p5YhZq7Bkp_-5" style="edgeStyle=orthogonalEdgeStyle;rounded=0;orthogonalLoop=1;jettySize=auto;html=1;exitX=0.5;exitY=1;exitDx=0;exitDy=0;entryX=0;entryY=0.5;entryDx=0;entryDy=0;" parent="WIyWlLk6GJQsqaUBKTNV-1" source="WIyWlLk6GJQsqaUBKTNV-3" target="3PD45dqQiOr3j87u4JWM-99" edge="1">
          <mxGeometry relative="1" as="geometry" />
        </mxCell>
        <mxCell id="YnjlUxaA0p5YhZq7Bkp_-8" style="edgeStyle=orthogonalEdgeStyle;rounded=0;orthogonalLoop=1;jettySize=auto;html=1;exitX=0.5;exitY=1;exitDx=0;exitDy=0;entryX=0;entryY=0.5;entryDx=0;entryDy=0;" parent="WIyWlLk6GJQsqaUBKTNV-1" source="3PD45dqQiOr3j87u4JWM-99" target="3PD45dqQiOr3j87u4JWM-103" edge="1">
          <mxGeometry relative="1" as="geometry" />
        </mxCell>
        <mxCell id="YnjlUxaA0p5YhZq7Bkp_-9" style="edgeStyle=orthogonalEdgeStyle;rounded=0;orthogonalLoop=1;jettySize=auto;html=1;exitX=0.5;exitY=1;exitDx=0;exitDy=0;entryX=0;entryY=0.5;entryDx=0;entryDy=0;" parent="WIyWlLk6GJQsqaUBKTNV-1" source="3PD45dqQiOr3j87u4JWM-99" target="3PD45dqQiOr3j87u4JWM-111" edge="1">
          <mxGeometry relative="1" as="geometry" />
        </mxCell>
        <mxCell id="YnjlUxaA0p5YhZq7Bkp_-10" style="edgeStyle=orthogonalEdgeStyle;rounded=0;orthogonalLoop=1;jettySize=auto;html=1;exitX=0.5;exitY=1;exitDx=0;exitDy=0;entryX=0;entryY=0.5;entryDx=0;entryDy=0;" parent="WIyWlLk6GJQsqaUBKTNV-1" source="3PD45dqQiOr3j87u4JWM-99" target="3PD45dqQiOr3j87u4JWM-115" edge="1">
          <mxGeometry relative="1" as="geometry" />
        </mxCell>
        <mxCell id="YnjlUxaA0p5YhZq7Bkp_-11" style="edgeStyle=orthogonalEdgeStyle;rounded=0;orthogonalLoop=1;jettySize=auto;html=1;exitX=0.5;exitY=1;exitDx=0;exitDy=0;entryX=0;entryY=0.5;entryDx=0;entryDy=0;" parent="WIyWlLk6GJQsqaUBKTNV-1" source="3PD45dqQiOr3j87u4JWM-99" target="3PD45dqQiOr3j87u4JWM-119" edge="1">
          <mxGeometry relative="1" as="geometry" />
        </mxCell>
        <mxCell id="vvyMU03r-9wy5ISigngp-0" value="" style="group" vertex="1" connectable="0" parent="WIyWlLk6GJQsqaUBKTNV-1">
          <mxGeometry x="280" y="840" width="436" height="145" as="geometry" />
        </mxCell>
        <mxCell id="vvyMU03r-9wy5ISigngp-1" value="purchase [amount?]" style="rounded=1;whiteSpace=wrap;html=1;fontSize=12;glass=0;strokeWidth=1;shadow=0;" vertex="1" parent="vvyMU03r-9wy5ISigngp-0">
          <mxGeometry y="46.4" width="120" height="46.4" as="geometry" />
        </mxCell>
        <mxCell id="vvyMU03r-9wy5ISigngp-2" value="" style="strokeWidth=2;html=1;shape=mxgraph.flowchart.annotation_2;align=left;labelPosition=right;pointerEvents=1;fontSize=12;" vertex="1" parent="vvyMU03r-9wy5ISigngp-0">
          <mxGeometry x="120" width="50" height="139.2" as="geometry" />
        </mxCell>
        <mxCell id="vvyMU03r-9wy5ISigngp-3" value="Command to &quot;purchase&quot; tokens.&lt;br&gt;For this prototype it is just an &quot;add&quot; command since we do not implement a payment provider.&lt;br&gt;&lt;br&gt;If no amount is given, then we default to 100&lt;br&gt;&lt;br&gt;&lt;div&gt;Flags:&lt;/div&gt;-h --help: Runs the Help command" style="text;html=1;strokeColor=none;fillColor=none;align=left;verticalAlign=middle;whiteSpace=wrap;rounded=0;fontSize=12;" vertex="1" parent="vvyMU03r-9wy5ISigngp-0">
          <mxGeometry x="176" y="-1.16" width="260" height="145" as="geometry" />
        </mxCell>
        <mxCell id="vvyMU03r-9wy5ISigngp-4" style="edgeStyle=orthogonalEdgeStyle;rounded=0;orthogonalLoop=1;jettySize=auto;html=1;entryX=0;entryY=0.5;entryDx=0;entryDy=0;" edge="1" parent="WIyWlLk6GJQsqaUBKTNV-1" source="3PD45dqQiOr3j87u4JWM-86" target="vvyMU03r-9wy5ISigngp-1">
          <mxGeometry relative="1" as="geometry" />
        </mxCell>
        <mxCell id="vvyMU03r-9wy5ISigngp-24" value="" style="group" vertex="1" connectable="0" parent="WIyWlLk6GJQsqaUBKTNV-1">
          <mxGeometry x="150" y="1820" width="436" height="165" as="geometry" />
        </mxCell>
        <mxCell id="vvyMU03r-9wy5ISigngp-25" value="instances" style="rounded=1;whiteSpace=wrap;html=1;fontSize=12;glass=0;strokeWidth=1;shadow=0;" vertex="1" parent="vvyMU03r-9wy5ISigngp-24">
          <mxGeometry y="52.800000000000004" width="120" height="52.800000000000004" as="geometry" />
        </mxCell>
        <mxCell id="vvyMU03r-9wy5ISigngp-26" value="" style="strokeWidth=2;html=1;shape=mxgraph.flowchart.annotation_2;align=left;labelPosition=right;pointerEvents=1;fontSize=12;" vertex="1" parent="vvyMU03r-9wy5ISigngp-24">
          <mxGeometry x="120" width="50" height="158.4" as="geometry" />
        </mxCell>
        <mxCell id="vvyMU03r-9wy5ISigngp-27" value="Displays current overview of all instances belonging to the current user&lt;br&gt;&lt;br&gt;&lt;div&gt;Flags:&lt;/div&gt;&lt;div&gt;-s --status&amp;lt;String&amp;gt;: Filter by specified status&lt;/div&gt;&lt;div&gt;-t --type&amp;lt;String&amp;gt;: Filter by specified instance type (custom,preset)&lt;/div&gt;&lt;div&gt;&lt;br&gt;&lt;/div&gt;-h --help: Runs the Help command" style="text;html=1;strokeColor=none;fillColor=none;align=left;verticalAlign=middle;whiteSpace=wrap;rounded=0;fontSize=12;" vertex="1" parent="vvyMU03r-9wy5ISigngp-24">
          <mxGeometry x="176" y="-1.32" width="260" height="165" as="geometry" />
        </mxCell>
        <mxCell id="vvyMU03r-9wy5ISigngp-28" style="edgeStyle=orthogonalEdgeStyle;rounded=0;orthogonalLoop=1;jettySize=auto;html=1;entryX=0;entryY=0.5;entryDx=0;entryDy=0;exitX=0.5;exitY=1;exitDx=0;exitDy=0;" edge="1" parent="WIyWlLk6GJQsqaUBKTNV-1" source="WIyWlLk6GJQsqaUBKTNV-3" target="vvyMU03r-9wy5ISigngp-25">
          <mxGeometry relative="1" as="geometry" />
        </mxCell>
      </root>
    </mxGraphModel>
  </diagram>
</mxfile>
